<svg xmlns="http://www.w3.org/2000/svg" width="1800" height="980"><rect width="100%" height="100%" fill="#F7F9FB"/><text x="70" y="65" font-size="38" font-weight="700" fill="#17365D">Figure 1. Research framework</text><text x="70" y="105" font-size="22" fill="#5B6573">From city-level carbon-constrained efficiency to regionally shared improvement</text><defs><marker id="a" markerWidth="12" markerHeight="12" refX="10" refY="5" orient="auto"><path d="M0,0 L10,5 L0,10 Z" fill="#64748B"/></marker></defs><g><rect x="70" y="165" width="350" height="210" rx="18" fill="#E8F3F1" stroke="#9FB3C8" stroke-width="2"/><text x="245" y="207" text-anchor="middle" font-size="27" font-weight="700" fill="#17365D">Managed system</text><text x="245" y="247" text-anchor="middle" font-size="20" fill="#374151">Input: built-up land</text><text x="245" y="277" text-anchor="middle" font-size="20" fill="#374151">Desirable: population, GDP</text><text x="245" y="307" text-anchor="middle" font-size="20" fill="#374151">Undesirable: CO₂</text></g><g><rect x="540" y="155" width="430" height="230" rx="18" fill="#EAF2F8" stroke="#9FB3C8" stroke-width="2"/><text x="755" y="197" text-anchor="middle" font-size="27" font-weight="700" fill="#17365D">Static efficiency</text><text x="755" y="237" text-anchor="middle" font-size="20" fill="#374151">Global SBM-Undesirable</text><text x="755" y="267" text-anchor="middle" font-size="20" fill="#374151">OE = PTE × SE</text><text x="755" y="297" text-anchor="middle" font-size="20" fill="#374151">Level and constraint structure</text></g><g><rect x="1090" y="155" width="360" height="230" rx="18" fill="#FFF2DF" stroke="#9FB3C8" stroke-width="2"/><text x="1270" y="197" text-anchor="middle" font-size="27" font-weight="700" fill="#17365D">Dynamic change</text><text x="1270" y="237" text-anchor="middle" font-size="20" fill="#374151">Global Malmquist–Luenberger</text><text x="1270" y="267" text-anchor="middle" font-size="20" fill="#374151">GML = TC × EC</text><text x="1270" y="297" text-anchor="middle" font-size="20" fill="#374151">Frontier movement vs catch-up</text></g><path d="M420,270 L535,270" stroke="#64748B" stroke-width="4" marker-end="url(#a)"/><path d="M970,270 L1085,270" stroke="#64748B" stroke-width="4" marker-end="url(#a)"/><g><rect x="160" y="520" width="400" height="210" rx="18" fill="#F1ECF8" stroke="#9FB3C8" stroke-width="2"/><text x="360" y="562" text-anchor="middle" font-size="27" font-weight="700" fill="#17365D">Distributional sharing</text><text x="360" y="602" text-anchor="middle" font-size="20" fill="#374151">Coefficient of variation</text><text x="360" y="632" text-anchor="middle" font-size="20" fill="#374151">β-convergence</text><text x="360" y="662" text-anchor="middle" font-size="20" fill="#374151">Rank mobility</text></g><g><rect x="700" y="520" width="400" height="210" rx="18" fill="#EAF2F8" stroke="#9FB3C8" stroke-width="2"/><text x="900" y="562" text-anchor="middle" font-size="27" font-weight="700" fill="#17365D">Spatial association</text><text x="900" y="602" text-anchor="middle" font-size="20" fill="#374151">Global Moran’s I</text><text x="900" y="632" text-anchor="middle" font-size="20" fill="#374151">Local Moran’s I (LISA)</text><text x="900" y="662" text-anchor="middle" font-size="20" fill="#374151">Diagnostic, not causal spillover</text></g><g><rect x="1240" y="500" width="430" height="250" rx="18" fill="#E8F3F1" stroke="#9FB3C8" stroke-width="2"/><text x="1455" y="542" text-anchor="middle" font-size="27" font-weight="700" fill="#17365D">Stage diagnosis</text><text x="1455" y="582" text-anchor="middle" font-size="20" fill="#374151">Did performance improve?</text><text x="1455" y="612" text-anchor="middle" font-size="20" fill="#374151">Was improvement broadly shared?</text><text x="1455" y="642" text-anchor="middle" font-size="20" fill="#374151">Did spatial coherence persist?</text><text x="1455" y="672" text-anchor="middle" font-size="20" fill="#374151">Shared catch-up vs differentiated growth</text></g><path d="M755,385 L395,515" stroke="#64748B" stroke-width="4" marker-end="url(#a)"/><path d="M755,385 L895,515" stroke="#64748B" stroke-width="4" marker-end="url(#a)"/><path d="M560,625 L1235,625" stroke="#64748B" stroke-width="4" marker-end="url(#a)"/><path d="M1100,625 L1235,625" stroke="#64748B" stroke-width="4" marker-end="url(#a)"/><rect x="300" y="820" width="1200" height="90" rx="18" fill="#17365D"/><text x="900" y="858" text-anchor="middle" font-size="28" font-weight="700" fill="#FFFFFF">Environmental-management implication</text><text x="900" y="892" text-anchor="middle" font-size="22" fill="#DCE8F4">Move from mean-efficiency targets to frontier renewal plus targeted capability equalization</text></svg>